<svg width="105" height="28" viewBox="0 0 105 28" fill="none" xmlns="http://www.w3.org/2000/svg">
<path d="M14.17 20H16.666L10.14 1.982H7.41L0.858 20H3.354L4.81 15.97H12.714L14.17 20ZM12.038 14.046H5.486L8.762 4.894L12.038 14.046ZM18.6375 12.824C18.6375 17.244 21.5755 20.234 25.3975 20.234C27.9975 20.234 29.8435 18.856 30.7015 17.322V20.312C30.7015 23.354 28.8035 24.966 26.2815 24.966C23.9415 24.966 22.2515 23.796 21.7315 22.08H19.3915C19.8595 25.122 22.5375 27.02 26.2815 27.02C30.4675 27.02 33.0935 24.238 33.0935 20.312V5.752H30.7015V8.352C29.8695 6.818 27.9975 5.518 25.3975 5.518C21.5755 5.518 18.6375 8.378 18.6375 12.824ZM30.7015 12.85C30.7015 16.204 28.4655 18.154 25.8655 18.154C23.2655 18.154 21.0555 16.178 21.0555 12.824C21.0555 9.47 23.2655 7.572 25.8655 7.572C28.4655 7.572 30.7015 9.548 30.7015 12.85ZM39.8738 20H42.3178L45.7498 8.69L49.1818 20H51.6258L56.0718 5.752H53.7318L50.5078 17.738L47.0498 5.752H44.6318L41.0958 17.712L37.8198 5.752H35.4018L39.8738 20ZM71.94 12.85C71.94 8.352 68.794 5.518 64.738 5.518C60.708 5.518 57.536 8.352 57.536 12.85C57.536 17.374 60.604 20.234 64.634 20.234C68.69 20.234 71.94 17.374 71.94 12.85ZM59.954 12.85C59.954 9.262 62.216 7.572 64.712 7.572C67.156 7.572 69.522 9.262 69.522 12.85C69.522 16.464 67.104 18.154 64.634 18.154C62.164 18.154 59.954 16.464 59.954 12.85ZM77.4168 12.252C77.4168 8.95 79.1328 7.936 81.3948 7.936H82.0188V5.492C79.7568 5.492 78.2228 6.48 77.4168 8.066V5.752H75.0508V20H77.4168V12.252ZM84.75 20H87.116V0.76H84.75V20ZM90.2645 12.824C90.2645 17.244 93.2025 20.234 97.0245 20.234C99.6245 20.234 101.47 18.908 102.328 17.322V20H104.72V0.76H102.328V8.3C101.34 6.662 99.2865 5.518 97.0505 5.518C93.2025 5.518 90.2645 8.378 90.2645 12.824ZM102.328 12.85C102.328 16.204 100.092 18.154 97.4925 18.154C94.8925 18.154 92.6825 16.178 92.6825 12.824C92.6825 9.47 94.8925 7.572 97.4925 7.572C100.092 7.572 102.328 9.548 102.328 12.85Z" fill="#163C35"/>
</svg>
